<?xml version="1.0" encoding="UTF-8" standalone="no"?><!DOCTYPE svg PUBLIC "-//W3C//DTD SVG 1.1//EN" "http://www.w3.org/Graphics/SVG/1.1/DTD/svg11.dtd"><svg width="100%" height="100%" viewBox="0 0 89 73" version="1.1" xmlns="http://www.w3.org/2000/svg" xmlns:xlink="http://www.w3.org/1999/xlink" xml:space="preserve" xmlns:serif="http://www.serif.com/" style="fill-rule:evenodd;clip-rule:evenodd;stroke-linejoin:round;stroke-miterlimit:2;"><g><g transform="matrix(0.24,0,0,0.24,-641.849,-385.811)"><text x="2723.8px" y="1862.03px" style="font-family:'ArialMT', 'Arial', sans-serif;font-size:37.5px;">Scored <tspan x="2852.36px 2875.26px " y="1862.03px 1862.03px ">Th</tspan>ird for</text><text x="2744.31px" y="1900.76px" style="font-family:'ArialMT', 'Arial', sans-serif;font-size:37.5px;">Digital Impact</text></g><clipPath id="_clip1"><rect id="DIChallenge" x="0.024" y="0.178" width="88.569" height="48.524"/></clipPath><g clip-path="url(#_clip1)"><path d="M28.863,18.115c0.093,0 0.187,0.047 0.257,0.117c0.069,0.07 0.116,0.163 0.116,0.256c0,0.21 -0.163,0.373 -0.373,0.373l-0.629,0c-0.093,0 -0.186,-0.047 -0.256,-0.117c-0.07,-0.07 -0.116,-0.163 -0.116,-0.256c0,-0.21 0.163,-0.373 0.372,-0.373l0.629,0Z" style="fill-rule:nonzero;"/><path d="M27.489,16.88l0.466,-0.465c0.07,-0.07 0.163,-0.117 0.256,-0.117c0.093,0 0.186,0.047 0.256,0.117c0.14,0.139 0.14,0.372 0,0.535l-0.466,0.466c-0.07,0.07 -0.163,0.117 -0.256,0.117c-0.093,0 -0.186,-0.047 -0.256,-0.117c-0.163,-0.163 -0.163,-0.396 0,-0.536Z" style="fill-rule:nonzero;"/><path d="M26.114,15.18c0,-0.21 0.163,-0.373 0.373,-0.373c0.093,0 0.187,0.047 0.256,0.117c0.07,0.07 0.117,0.163 0.117,0.256l0,1.677c0,0.21 -0.163,0.373 -0.373,0.373c-0.093,0 -0.186,-0.047 -0.256,-0.117c-0.07,-0.069 -0.117,-0.163 -0.117,-0.256l0,-1.677Z" style="fill-rule:nonzero;"/><path d="M24.391,16.391c0.069,-0.07 0.163,-0.116 0.256,-0.116c0.093,0 0.186,0.046 0.256,0.116l0.466,0.466c0.14,0.14 0.14,0.373 0,0.536c-0.07,0.07 -0.163,0.116 -0.256,0.116c-0.093,0 -0.187,-0.046 -0.257,-0.116l-0.465,-0.466c-0.14,-0.14 -0.14,-0.373 0,-0.536Z" style="fill-rule:nonzero;"/><path d="M24.158,18.115l0.629,0c0.209,0 0.372,0.163 0.372,0.373c0,0.21 -0.163,0.373 -0.372,0.373l-0.629,0c-0.094,0 -0.187,-0.047 -0.257,-0.117c-0.07,-0.07 -0.116,-0.163 -0.116,-0.256c0,-0.21 0.163,-0.373 0.373,-0.373Z" style="fill-rule:nonzero;"/><path d="M23.995,22.332c0,2.003 -1.352,3.331 -3.425,3.331l-2.073,0l0,-6.663l2.073,0c2.073,0 3.425,1.305 3.425,3.332Zm-4.52,-2.423c0.024,0.046 0.024,0.116 0.024,0.233l0,4.356c0,0.117 0,0.186 -0.024,0.233l0.024,0.023c0.069,-0.023 0.116,-0.046 0.232,-0.046l0.886,0c1.467,0 2.329,-0.885 2.329,-2.4c0,-1.514 -0.885,-2.399 -2.329,-2.399l-0.886,0c-0.116,0.023 -0.186,0.023 -0.256,0Z" style="fill-rule:nonzero;"/><rect x="25.928" y="19" width="0.978" height="6.639" style="fill-rule:nonzero;"/><path d="M34.897,19.746l-0.676,0.815c-0.419,-0.396 -1.071,-0.722 -1.91,-0.722c-1.468,0 -2.399,1.072 -2.399,2.469c0,1.421 0.978,2.446 2.469,2.446c1.514,0 2.236,-1.071 2.26,-1.933l-0.024,-0.023c-0.07,0.046 -0.279,0.093 -0.629,0.093l-1.584,0l0,-0.932l3.308,0l0,0.349c0,1.747 -1.071,3.448 -3.331,3.448c-2.003,0 -3.518,-1.351 -3.518,-3.448c0,-2.05 1.421,-3.494 3.518,-3.494c1.095,0.047 1.957,0.466 2.516,0.932Z" style="fill-rule:nonzero;"/><rect x="37.506" y="19" width="0.978" height="6.639" style="fill-rule:nonzero;"/><path d="M44.914,19.955l-1.654,0c-0.117,0 -0.163,0 -0.233,-0.046l-0.023,0.023c0.023,0.047 0.023,0.117 0.023,0.233l0,5.475l-0.978,0l0,-5.475c0,-0.116 0,-0.186 0.023,-0.233l-0.023,-0.023c-0.07,0.023 -0.117,0.046 -0.233,0.046l-1.654,0l0,-0.955l4.752,0l0,0.955Z" style="fill-rule:nonzero;"/><path d="M49.154,18.861l0.093,0l3.168,6.779l-1.118,0l-0.769,-1.748l-2.632,0l-0.769,1.748l-1.118,0l3.145,-6.779Zm-0.466,4.193l1.025,0c0.279,0 0.442,0 0.536,0.023c-0.07,-0.093 -0.187,-0.256 -0.303,-0.536l-0.49,-1.164c-0.139,-0.327 -0.209,-0.606 -0.232,-0.769l-0.047,0c-0.023,0.163 -0.093,0.442 -0.233,0.769l-0.489,1.164c-0.117,0.303 -0.233,0.443 -0.303,0.536c0.07,0 0.233,-0.023 0.536,-0.023Z" style="fill-rule:nonzero;"/><path d="M55.071,24.475c0,0.116 0,0.186 -0.024,0.233l0.024,0.023c0.07,-0.023 0.116,-0.047 0.233,-0.047l2.609,0l0,0.956l-3.844,0l0,-6.64l0.978,0l0,5.475l0.024,0Z" style="fill-rule:nonzero;"/><rect x="18.52" y="30.438" width="0.978" height="6.639" style="fill-rule:nonzero;"/><path d="M23.668,33.653c-0.233,-0.536 -0.279,-0.792 -0.302,-1.071l-0.047,0c0,0.209 0,0.629 -0.14,1.071l-0.978,3.425l-1.025,0l1.98,-6.733l0.14,0l1.793,4.17c0.07,0.187 0.14,0.466 0.163,0.769l0.047,0c0.023,-0.303 0.093,-0.582 0.163,-0.769l1.794,-4.17l0.14,0l1.98,6.733l-1.025,0l-0.979,-3.425c-0.139,-0.442 -0.139,-0.862 -0.139,-1.071l-0.047,0c-0.023,0.279 -0.07,0.512 -0.303,1.071l-1.537,3.495l-0.094,0l-1.584,-3.495Z" style="fill-rule:nonzero;"/><path d="M33.569,30.299l0.093,0l3.168,6.779l-1.118,0l-0.769,-1.748l-2.632,0l-0.769,1.748l-1.118,0l3.145,-6.779Zm-0.466,4.193l1.025,0c0.28,0 0.443,0 0.536,0.023c-0.07,-0.093 -0.186,-0.256 -0.303,-0.536l-0.489,-1.164c-0.14,-0.327 -0.21,-0.606 -0.233,-0.769l-0.047,0c-0.023,0.163 -0.093,0.442 -0.233,0.769l-0.489,1.164c-0.116,0.303 -0.233,0.443 -0.303,0.536c0.093,0 0.257,-0.023 0.536,-0.023Z" style="fill-rule:nonzero;"/><path d="M44.192,31.184l-0.676,0.815c-0.419,-0.396 -1.071,-0.722 -1.91,-0.722c-1.468,0 -2.4,1.072 -2.4,2.469c0,1.421 0.979,2.446 2.47,2.446c1.514,0 2.236,-1.071 2.259,-1.933l-0.023,-0.023c-0.07,0.046 -0.279,0.093 -0.629,0.093l-1.584,0l0,-0.932l3.285,0l0,0.349c0,1.748 -1.072,3.448 -3.331,3.448c-2.004,0 -3.518,-1.351 -3.518,-3.448c0,-2.05 1.421,-3.494 3.518,-3.494c1.118,0.047 1.98,0.466 2.539,0.932Z" style="fill-rule:nonzero;"/><rect x="46.801" y="30.438" width="0.978" height="6.639" style="fill-rule:nonzero;"/><path d="M54.209,34.399c0.233,0.233 0.442,0.535 0.512,0.745l0.047,0c-0.047,-0.21 -0.093,-0.652 -0.093,-1.188l0,-3.494l0.978,0l0,6.732l-0.093,0l-4.054,-4.053c-0.232,-0.233 -0.442,-0.536 -0.512,-0.746l-0.047,0c0.047,0.21 0.094,0.653 0.094,1.188l0,3.495l-0.979,0l0,-6.733l0.093,0l4.054,4.054Z" style="fill-rule:nonzero;"/><path d="M60.499,30.299l0.093,0l3.168,6.779l-1.118,0l-0.769,-1.748l-2.632,0l-0.769,1.748l-1.118,0l3.145,-6.779Zm-0.466,4.193l1.025,0c0.279,0 0.442,0 0.535,0.023c-0.069,-0.093 -0.186,-0.256 -0.302,-0.536l-0.49,-1.164c-0.139,-0.327 -0.209,-0.606 -0.233,-0.769l-0.046,0c-0.023,0.163 -0.093,0.442 -0.233,0.769l-0.489,1.164c-0.117,0.303 -0.233,0.443 -0.303,0.536c0.093,0 0.256,-0.023 0.536,-0.023Z" style="fill-rule:nonzero;"/><path d="M69.584,31.394l-1.654,0c-0.117,0 -0.163,0 -0.233,-0.047l-0.023,0.023c0.023,0.047 0.023,0.117 0.023,0.233l0,5.475l-0.979,0l0,-5.475c0,-0.116 0,-0.186 0.024,-0.233l-0.024,-0.023c-0.069,0.023 -0.116,0.047 -0.233,0.047l-1.654,0l0,-0.956l4.753,0l0,0.956Z" style="fill-rule:nonzero;"/><rect x="71.261" y="30.438" width="0.978" height="6.639" style="fill-rule:nonzero;"/><path d="M81.092,33.77c0,2.003 -1.445,3.471 -3.471,3.471c-2.004,0 -3.471,-1.445 -3.471,-3.471c0,-2.027 1.444,-3.471 3.471,-3.471c2.026,0 3.471,1.444 3.471,3.471Zm-5.847,0c0,1.444 0.978,2.469 2.376,2.469c1.397,0 2.376,-1.025 2.376,-2.469c0,-1.445 -0.979,-2.47 -2.376,-2.47c-1.398,0 -2.376,1.025 -2.376,2.47Z" style="fill-rule:nonzero;"/><path d="M87.149,34.399c0.233,0.233 0.442,0.535 0.512,0.745l0.047,0c-0.047,-0.21 -0.094,-0.652 -0.094,-1.188l0,-3.494l0.979,0l0,6.732l-0.093,0l-4.054,-4.053c-0.233,-0.233 -0.442,-0.536 -0.512,-0.746l-0.047,0c0.047,0.21 0.093,0.653 0.093,1.188l0,3.495l-0.978,0l0,-6.733l0.093,0l4.054,4.054Z" style="fill-rule:nonzero;"/><path d="M18.077,44.695c0,-2.329 1.724,-4.007 4.17,-4.007c1.025,0 2.004,0.303 2.796,0.862l-0.862,1.375c-0.606,-0.396 -1.235,-0.583 -1.91,-0.583c-1.421,0 -2.4,0.956 -2.4,2.353c0,1.398 0.979,2.353 2.4,2.353c0.652,0 1.281,-0.186 1.91,-0.582l0.862,1.374c-0.792,0.559 -1.771,0.862 -2.796,0.862c-2.446,0 -4.17,-1.677 -4.17,-4.007Z" style="fill-rule:nonzero;"/><path d="M33.639,48.539l-1.701,0l0,-2.982c0,-0.163 0.024,-0.279 0.047,-0.326l-0.023,-0.023c-0.07,0.023 -0.14,0.046 -0.303,0.046l-2.679,0c-0.187,0 -0.256,-0.023 -0.303,-0.046l-0.023,0.023c0.023,0.047 0.046,0.186 0.046,0.326l0,2.982l-1.7,0l0,-7.687l1.7,0l0,2.539c0,0.163 -0.023,0.279 -0.046,0.349l0.023,0.023c0.047,-0.023 0.14,-0.046 0.303,-0.046l2.679,0c0.163,0 0.233,0.023 0.303,0.046l0.023,-0.023c-0.023,-0.046 -0.047,-0.186 -0.047,-0.349l0,-2.539l1.701,0l0,7.687Z" style="fill-rule:nonzero;"/><path d="M39.206,40.688l0.35,0l3.797,7.828l-1.864,0l-0.722,-1.608l-2.749,0l-0.722,1.608l-1.863,0l3.773,-7.828Zm-0.302,4.962l0.978,0c0.233,0 0.373,0 0.489,0.047c-0.093,-0.116 -0.186,-0.28 -0.303,-0.513l-0.442,-1.048c-0.163,-0.373 -0.233,-0.605 -0.233,-0.792l-0.047,0c0,0.187 -0.07,0.419 -0.233,0.792l-0.442,1.048c-0.117,0.233 -0.21,0.397 -0.303,0.513c0.163,-0.023 0.303,-0.047 0.536,-0.047Z" style="fill-rule:nonzero;"/><path d="M46.847,46.675c0,0.163 -0.023,0.28 -0.046,0.327l0.023,0.023c0.047,-0.023 0.14,-0.047 0.303,-0.047l2.819,0l0,1.538l-4.776,0l0,-7.688l1.701,0l0,5.847l-0.024,0Z" style="fill-rule:nonzero;"/><path d="M53.417,46.675c0,0.163 -0.024,0.28 -0.047,0.327l0.023,0.023c0.047,-0.023 0.14,-0.047 0.303,-0.047l2.819,0l0,1.538l-4.776,0l0,-7.688l1.701,0l0,5.847l-0.023,0Z" style="fill-rule:nonzero;"/><path d="M63.061,42.366l-2.795,0c-0.187,0 -0.257,-0.024 -0.303,-0.047l-0.024,0.023c0.024,0.047 0.047,0.187 0.047,0.327l0,0.768c0,0.163 -0.023,0.28 -0.047,0.35l0.024,0.023c0.046,-0.023 0.14,-0.047 0.303,-0.047l2.492,0l0,1.491l-2.492,0c-0.187,0 -0.257,-0.023 -0.303,-0.046l-0.024,0.023c0.024,0.047 0.047,0.186 0.047,0.326l0,1.188c0,0.14 -0.023,0.28 -0.047,0.326l0.024,0.024c0.046,-0.024 0.14,-0.047 0.303,-0.047l2.842,0l0,1.514l-4.799,0l0,-7.687l4.775,0l0,1.491l-0.023,0Z" style="fill-rule:nonzero;"/><path d="M69.654,44.742c0.279,0.279 0.396,0.442 0.512,0.675l0.047,0c-0.07,-0.256 -0.117,-0.652 -0.117,-1.351l0,-3.238l1.678,0l0,7.804l-0.373,0l-4.007,-4.007c-0.28,-0.279 -0.373,-0.442 -0.513,-0.698l-0.046,0c0.093,0.256 0.14,0.652 0.14,1.351l0,3.238l-1.678,0l0,-7.804l0.373,0l3.984,4.03Z" style="fill-rule:nonzero;"/><path d="M80.905,41.62l-0.955,1.375c-0.582,-0.42 -1.351,-0.699 -2.073,-0.699c-1.398,0 -2.33,0.955 -2.33,2.329c0,1.445 0.909,2.4 2.307,2.4c1.444,0 2.003,-0.816 2.096,-1.608l-0.023,-0.023c-0.14,0.093 -0.396,0.117 -0.699,0.117l-1.398,0l0,-1.421l3.821,0l0,0.349c0,2.423 -1.212,4.24 -3.751,4.24c-2.422,0 -4.076,-1.608 -4.076,-4.03c0,-2.376 1.654,-4.007 4.146,-4.007c1.095,0.023 2.073,0.373 2.935,0.978Z" style="fill-rule:nonzero;"/><path d="M88.407,42.366l-2.796,0c-0.186,0 -0.256,-0.024 -0.303,-0.047l-0.023,0.023c0.023,0.047 0.047,0.187 0.047,0.327l0,0.768c0,0.163 -0.024,0.28 -0.047,0.35l0.023,0.023c0.047,-0.023 0.14,-0.047 0.303,-0.047l2.493,0l0,1.491l-2.493,0c-0.186,0 -0.256,-0.023 -0.303,-0.046l-0.023,0.023c0.023,0.047 0.047,0.186 0.047,0.326l0,1.188c0,0.14 -0.024,0.28 -0.047,0.326l0.023,0.024c0.047,-0.024 0.14,-0.047 0.303,-0.047l2.842,0l0,1.514l-4.799,0l0,-7.687l4.776,0l0,1.491l-0.023,0Z" style="fill-rule:nonzero;"/><path d="M16.517,40.758l-0.955,-0.046c0.046,-0.909 -1.864,-2.143 -2.796,-2.609l-0.023,-0.024l-10.25,-5.917c-1.514,-0.885 -2.469,-2.539 -2.469,-4.309l0,-14.467c0,-1.77 0.955,-3.424 2.492,-4.309l14.257,-8.224c1.537,-0.908 3.448,-0.908 4.985,0l14.257,8.247c1.305,0.769 2.19,2.073 2.423,3.541c0.046,0.256 0.07,4.263 0.07,4.519l-0.955,0c0,-0.256 -0.024,-4.263 -0.07,-4.519c-0.21,-1.142 -0.932,-2.143 -1.934,-2.726l-14.28,-8.246c-1.235,-0.723 -2.772,-0.723 -4.03,0l-14.257,8.223c-1.235,0.722 -2.003,2.05 -2.003,3.494l0,14.467c0,1.444 0.768,2.772 2.003,3.494l10.227,5.917c0.419,0.186 3.424,1.724 3.308,3.494Z" style="fill-rule:nonzero;"/><rect x="14.304" y="42.226" width="2.166" height="0.955"/><rect x="14.304" y="44.905" width="2.166" height="0.955"/><rect x="14.304" y="47.584" width="2.166" height="0.955"/></g></g></svg>